<?xml version="1.0" standalone="no"?>
<!DOCTYPE svg PUBLIC "-//W3C//DTD SVG 20010904//EN"
 "http://www.w3.org/TR/2001/REC-SVG-20010904/DTD/svg10.dtd">
<svg version="1.0" xmlns="http://www.w3.org/2000/svg"
 width="1280.000000pt" height="1128.000000pt" viewBox="0 0 1280.000000 1128.000000"
 preserveAspectRatio="xMidYMid meet">
<metadata>
Created by potrace 1.15, written by Peter Selinger 2001-2017
</metadata>
<g transform="translate(0.000000,1128.000000) scale(0.100000,-0.100000)"
fill="#57be6c" stroke="none">
<path d="M6302 11265 c-135 -30 -260 -112 -336 -218 -24 -34 -1201 -2067
-2616 -4517 -1415 -2450 -2737 -4738 -2937 -5085 -242 -419 -371 -652 -384
-695 -98 -312 71 -624 396 -729 46 -14 562 -16 5950 -19 5369 -2 5907 -1 5973
13 332 73 529 421 420 740 -16 47 -958 1702 -2927 5140 -1596 2789 -2917 5093
-2935 5120 -71 107 -182 195 -299 234 -81 28 -221 36 -305 16z m253 -236 c60
-22 115 -66 154 -122 15 -23 366 -631 778 -1352 413 -720 1719 -3001 2902
-5069 1184 -2067 2160 -3777 2168 -3800 22 -63 19 -170 -8 -241 -30 -81 -112
-163 -194 -196 l-60 -24 -2675 -2 c-1471 -2 -4131 1 -5910 5 l-3235 7 -50 25
c-166 81 -242 278 -173 446 40 96 5872 10184 5917 10236 93 105 244 139 386
87z"/>
<path d="M6339 10934 c-93 -28 -98 -35 -587 -884 -253 -437 -1559 -2698 -2902
-5025 -1344 -2326 -2461 -4263 -2482 -4303 -32 -62 -38 -83 -38 -135 0 -107
59 -198 158 -245 35 -16 343 -17 5897 -20 5433 -2 5863 -1 5909 14 65 22 147
102 164 160 17 60 15 143 -7 189 -28 62 -5799 10135 -5826 10171 -14 18 -53
46 -86 63 -70 35 -124 39 -200 15z"/>
</g>
</svg>
